<?xml version="1.0" encoding="UTF-8" standalone="no"?>
<!DOCTYPE svg PUBLIC "-//W3C//DTD SVG 1.1//EN" "http://www.w3.org/Graphics/SVG/1.1/DTD/svg11.dtd">
<svg version="1.1" xmlns="http://www.w3.org/2000/svg" xmlns:xlink="http://www.w3.org/1999/xlink" preserveAspectRatio="xMidYMid meet" viewBox="0 0 1920 1080" width="1920" height="1080"><defs><path d="M34.12 1.77L1856.5 1.77L1856.5 329.11L946.3 329.11L34.12 329.11L34.12 1.77Z" id="g1TnwxujOG"></path><linearGradient id="gradientasHbyhXXI" gradientUnits="userSpaceOnUse" x1="945.31" y1="1.77" x2="948.07" y2="209.85"><stop style="stop-color: #485b86;stop-opacity: 1" offset="0%"></stop><stop style="stop-color: #010000;stop-opacity: 1" offset="100%"></stop></linearGradient><path d="M-59.34 -61.38L-66.41 392.26C583.99 304.06 905.65 254.62 898.58 243.96C887.98 227.96 819.05 168.35 799.61 158.17C780.17 147.99 681.2 126.18 651.15 114.55C621.1 102.92 599.9 50.58 555.71 8.41C526.25 -19.7 489.73 -41.02 446.13 -55.56L283.53 -11.95L-59.34 -61.38Z" id="b4qRuH1MT"></path><linearGradient id="gradientdhLf62EHB" gradientUnits="userSpaceOnUse" x1="460.15" y1="-27.01" x2="404.15" y2="312.06"><stop style="stop-color: #06632e;stop-opacity: 1" offset="0%"></stop><stop style="stop-color: #010000;stop-opacity: 1" offset="100%"></stop></linearGradient><path d="M1672.11 -71.81L1680.05 381.83C950.01 293.62 588.95 244.19 596.89 233.52C608.79 217.53 686.16 157.92 707.98 147.74C729.8 137.56 840.9 115.75 874.62 104.12C908.34 92.49 932.15 40.14 981.75 -2.02C1014.81 -30.13 1055.81 -51.46 1104.74 -66L1287.25 -22.38L1672.11 -71.81Z" id="a2vhFfDnhe"></path><linearGradient id="gradientb2zfEfKo1" gradientUnits="userSpaceOnUse" x1="1138.4" y1="-71.81" x2="1138.4" y2="381.83"><stop style="stop-color: #075f13;stop-opacity: 1" offset="0%"></stop><stop style="stop-color: #010000;stop-opacity: 1" offset="100%"></stop></linearGradient><path d="M1941.34 502.36L870.31 494.04C875.02 418.2 885.17 365.48 900.75 335.88C924.12 291.49 956.91 259.58 1029.48 198.54C1102.06 137.5 1209.64 155.54 1275.04 136.11C1340.43 116.69 1534.84 59.81 1573.72 7.1C1599.65 -28.05 1716.29 -78.45 1923.67 -144.12L1941.34 502.36Z" id="f5KL0uSV0G"></path><linearGradient id="gradientc8cJW45tCS" gradientUnits="userSpaceOnUse" x1="1405.82" y1="-144.12" x2="1405.82" y2="502.36"><stop style="stop-color: #0a6b1e;stop-opacity: 1" offset="0%"></stop><stop style="stop-color: #010000;stop-opacity: 1" offset="100%"></stop></linearGradient><path d="M941.92 370.57L1056.8 344.21L1164.61 370.57L1221.17 470.45C1249.44 515.77 1265.35 547.68 1268.88 566.17C1274.19 593.92 1263.58 584.21 1230 606.41C1196.42 628.6 1191.12 632.76 1127.69 657.74C1064.27 682.71 1081.54 666.06 1023.22 675.77C964.9 685.48 940.15 678.55 906.57 693.81C872.99 709.07 887.13 710.45 897.73 753.46C908.34 796.46 904.8 779.82 941.92 799.24C979.03 818.66 1010.85 821.44 1081.54 825.6C1152.24 829.76 1224.7 832.53 1283.02 840.86C1341.35 849.18 1435.02 876.93 1472.13 903.29C1509.25 929.64 1509.25 975.43 1493.34 1012.88C1482.74 1037.85 1445.03 1075.31 1380.23 1125.25L61.76 1111.38C219.65 1081.78 351.02 1058.66 455.89 1042.02C613.19 1017.04 786.39 975.43 834.11 969.88C881.83 964.33 957.83 915.77 971.96 903.29C986.1 890.8 964.9 858.89 954.29 840.86C943.69 822.82 903.04 815.89 878.29 813.11C853.55 810.34 825.27 783.98 819.97 753.46C814.67 722.94 872.99 689.64 911.46 671.61C949.93 653.57 1009.08 657.74 1049.73 646.64C1090.38 635.54 1139.87 602.24 1150.47 578.66C1157.54 562.94 1147.52 496.35 1120.42 378.89L941.92 370.57Z" id="cIKWJceKy"></path><linearGradient id="gradientaWDkDYtYj" gradientUnits="userSpaceOnUse" x1="782.6" y1="344.21" x2="789.67" y2="1189.07"><stop style="stop-color: #2d26b4;stop-opacity: 1" offset="0%"></stop><stop style="stop-color: #040a3e;stop-opacity: 1" offset="100%"></stop></linearGradient><path d="M-182.11 549.53L1166.4 541.2C1160.46 465.36 1147.69 412.65 1128.07 383.05C1098.64 338.66 1057.36 306.75 965.98 245.71C874.6 184.67 739.15 202.7 656.81 183.28C574.48 163.86 329.7 106.98 280.74 54.26C248.1 19.12 101.24 -31.29 -159.86 -96.95L-182.11 549.53Z" id="a1BmHgxOaM"></path><linearGradient id="gradienta4pUZqtWLs" gradientUnits="userSpaceOnUse" x1="536.14" y1="54.59" x2="444.14" y2="549.53"><stop style="stop-color: #026310;stop-opacity: 1" offset="0%"></stop><stop style="stop-color: #010000;stop-opacity: 1" offset="100%"></stop></linearGradient><path d="M1920.55 221C1921.54 298.18 1923.51 452.52 1926.46 684.04L1085.95 694.24L1119.05 658.98C1174.22 628.67 1204.17 608.87 1208.89 599.6C1215.99 585.68 1237.27 509.59 1240.81 474.06C1244.36 438.53 1290.46 411.23 1330.66 373.18C1370.85 335.14 1457.15 299.88 1524.53 280.39C1569.45 267.4 1684.12 246.37 1868.54 217.29C1902.23 142.59 1919.57 143.83 1920.55 221Z" id="a1hZFyZisL"></path><linearGradient id="gradientoz79zR7N0" gradientUnits="userSpaceOnUse" x1="1506.21" y1="162.18" x2="1506.21" y2="694.24"><stop style="stop-color: #094e05;stop-opacity: 1" offset="0%"></stop><stop style="stop-color: #010000;stop-opacity: 1" offset="100%"></stop></linearGradient><path d="M1138.4 513.53L1152.26 577.3" id="c47C5ySRtP"></path><path d="M2106.25 753.56C1428.73 745.17 1075.02 740.97 1045.11 740.97C1000.24 740.97 975.56 753.56 934.53 764.36C907.17 771.56 884.21 758.96 865.63 726.57L865.63 685.19L899.28 676.39C897.79 658.26 924.71 652.2 980.05 658.2C1063.05 667.19 1015.94 647.4 1195.42 658.2C1374.89 668.99 1253.75 651 1341.24 638.4C1428.73 625.8 1377.13 586.22 1473.6 571.82C1570.07 557.43 1554.36 562.83 1623.91 527.72C1693.46 492.6 1673.27 418.87 1731.59 386.49C1770.48 364.89 1855.73 373.29 1987.35 411.68L2106.25 753.56Z" id="b6T5Q3Ro8O"></path><linearGradient id="gradientbNvfcUHCz" gradientUnits="userSpaceOnUse" x1="1477.94" y1="413.02" x2="1597.94" y2="766.32"><stop style="stop-color: #1e5332;stop-opacity: 1" offset="0%"></stop><stop style="stop-color: #010000;stop-opacity: 1" offset="100%"></stop></linearGradient><path d="M-193.47 611.2C442.6 602.8 774.68 598.61 802.76 598.61C844.89 598.61 868.06 611.2 906.58 622C932.26 629.2 953.82 616.6 971.26 584.21L971.26 542.82L939.67 534.03C941.07 515.9 915.8 509.84 863.84 515.83C785.91 524.83 830.14 505.04 661.65 515.83C493.15 526.63 606.89 508.64 524.74 496.04C442.6 483.43 491.04 443.86 400.48 429.46C309.91 415.07 324.65 420.46 259.36 385.35C194.07 350.24 213.02 276.51 158.26 244.12C121.76 222.53 41.72 230.93 -81.84 269.31L-193.47 611.2Z" id="d6t3UCUA6"></path><linearGradient id="gradientg3twKshdN" gradientUnits="userSpaceOnUse" x1="444.89" y1="316.48" x2="388.89" y2="623.96"><stop style="stop-color: #125c2d;stop-opacity: 1" offset="0%"></stop><stop style="stop-color: #010000;stop-opacity: 1" offset="100%"></stop></linearGradient><path d="M1140.25 606.04C1123.75 621.01 1116.28 625.8 1117.85 620.42L1060.09 649.16C1020.8 653.95 990.54 656.64 969.32 657.24C937.5 658.14 946.93 626.7 936.32 615.92C929.24 608.74 924.53 586.91 922.17 550.43C943.39 522.84 962.25 502.15 978.75 488.38C1003.51 467.72 1073.06 479.4 1114.31 485.69C1141.82 489.88 1156.36 507.24 1157.93 537.78C1162.65 568.32 1156.75 591.07 1140.25 606.04Z" id="b6einJsq3"></path><linearGradient id="gradientc48uITt7By" gradientUnits="userSpaceOnUse" x1="1040.84" y1="476.67" x2="1040.84" y2="657.26"><stop style="stop-color: #333e3e;stop-opacity: 1" offset="0%"></stop><stop style="stop-color: #010000;stop-opacity: 1" offset="100%"></stop></linearGradient><path d="M-19.02 761.26L12.01 1206.83L256 1104.14C460.19 1058.04 593.21 1032.74 655.04 1028.22C747.8 1021.44 777.55 992.97 852.8 978.06C928.05 963.15 905.3 938.75 927.16 921.12C941.74 909.37 944.95 886.78 936.8 853.34L898.3 816.74C877.3 805.89 859.8 791.6 845.8 773.88C824.8 747.29 851.05 732.69 859.8 708.28C865.63 692.02 888.09 683.43 927.16 682.53L1003.3 651.35C989.3 634.17 971.22 621.07 949.05 612.03C915.8 598.47 873.8 593.05 812.55 594.41C751.3 595.76 672.54 583.56 620.05 594.41C567.55 605.25 455.54 580.85 376.78 568.65C298.03 556.45 273.53 574.07 219.28 568.65C183.11 565.03 114.02 552.63 12.01 531.43L-19.02 761.26Z" id="hbiUpczj6"></path><linearGradient id="gradientamvAQcISJ" gradientUnits="userSpaceOnUse" x1="492.14" y1="531.43" x2="492.14" y2="1206.83"><stop style="stop-color: #043620;stop-opacity: 1" offset="0%"></stop><stop style="stop-color: #010000;stop-opacity: 1" offset="100%"></stop></linearGradient><path d="M827.18 914.51C839.91 925.84 845.67 929.46 844.46 925.38L889.02 947.12C919.34 950.74 942.68 952.78 959.05 953.23C983.61 953.91 976.33 930.14 984.52 921.99C989.97 916.55 993.61 900.04 995.43 872.45C979.06 851.58 964.51 835.94 951.78 825.53C932.68 809.9 879.02 818.73 847.18 823.49C825.96 826.66 814.75 839.79 813.53 862.89C809.9 885.98 814.44 903.19 827.18 914.51Z" id="a58R2nVn7g"></path><linearGradient id="gradientd7aepIt5S" gradientUnits="userSpaceOnUse" x1="903.88" y1="816.67" x2="903.88" y2="953.25"><stop style="stop-color: #3a5151;stop-opacity: 1" offset="0%"></stop><stop style="stop-color: #010000;stop-opacity: 1" offset="100%"></stop></linearGradient><path d="M688.85 843.77C694.8 849.06 697.49 850.75 696.92 848.85L717.73 859C731.89 860.69 742.78 861.64 750.43 861.85C761.89 862.17 758.5 851.07 762.32 847.26C764.87 844.72 766.56 837.02 767.41 824.13C759.77 814.39 752.98 807.09 747.03 802.22C738.11 794.93 713.06 799.05 698.2 801.27C688.29 802.75 683.05 808.88 682.48 819.67C680.79 830.45 682.91 838.49 688.85 843.77Z" id="doMx8fmaG"></path><linearGradient id="gradientd7oWVhD6OH" gradientUnits="userSpaceOnUse" x1="724.67" y1="798.09" x2="724.67" y2="861.86"><stop style="stop-color: #353636;stop-opacity: 1" offset="0%"></stop><stop style="stop-color: #010000;stop-opacity: 1" offset="100%"></stop></linearGradient><path d="M674.67 1009.46C681.98 1015.97 685.29 1018.05 684.6 1015.71L710.2 1028.2C727.62 1030.28 741.03 1031.45 750.43 1031.71C764.54 1032.1 760.36 1018.44 765.06 1013.76C768.2 1010.63 770.29 1001.15 771.34 985.3C761.93 973.31 753.57 964.32 746.25 958.34C735.28 949.36 704.45 954.44 686.16 957.17C673.97 958.99 667.53 966.53 666.83 979.8C664.74 993.07 667.35 1002.96 674.67 1009.46Z" id="a2fXf5p9E"></path><linearGradient id="gradientczKnJDk70" gradientUnits="userSpaceOnUse" x1="718.73" y1="953.25" x2="718.73" y2="1031.72"><stop style="stop-color: #354848;stop-opacity: 1" offset="0%"></stop><stop style="stop-color: #010000;stop-opacity: 1" offset="100%"></stop></linearGradient><path d="" id="btb5NYDtl"></path><path d="M2268.44 918.34L2095.89 1186.12C1540.54 1180.93 1280.71 1172.11 1316.41 1159.65C1352.11 1147.2 1410.29 1091.47 1490.95 992.48C1465.83 939.94 1441.37 905.89 1417.57 890.32C1381.87 866.96 1304.51 848.28 1233.11 840.5C1161.71 832.71 1090.31 828.04 1050.64 829.97C1010.97 831.9 949.49 817.14 917.75 804.69C896.59 796.39 883.37 779.78 878.08 754.87C908.49 752.8 928.33 746.08 937.58 734.73C951.47 717.7 1014.94 709.72 1050.64 701.94C1086.34 694.15 1195.43 711.28 1268.81 714.39C1342.2 717.51 1429.47 694.15 1477.07 691.04C1524.67 687.93 1627.81 680.14 1701.19 657.26C1750.12 642 1813.58 630.91 1891.6 623.96L2268.44 918.34Z" id="dK2oPmum"></path><linearGradient id="gradientekF5sumbE" gradientUnits="userSpaceOnUse" x1="1573.26" y1="623.96" x2="1657.26" y2="1125.25"><stop style="stop-color: #0f3525;stop-opacity: 1" offset="0%"></stop><stop style="stop-color: #010000;stop-opacity: 1" offset="100%"></stop></linearGradient><path d="M1520.08 889.11C1506.4 900.44 1500.21 904.06 1501.51 899.98L1453.62 921.72C1421.04 925.34 1395.95 927.38 1378.36 927.83C1351.97 928.51 1359.79 904.74 1350.99 896.59C1345.12 891.15 1341.21 874.64 1339.26 847.05C1356.85 826.18 1372.49 810.54 1386.18 800.13C1406.7 784.5 1464.37 793.33 1498.58 798.09C1521.39 801.26 1533.44 814.39 1534.74 837.49C1538.65 860.58 1533.77 877.79 1520.08 889.11Z" id="fkbIJtHap"></path><linearGradient id="gradienta4peUkgNNN" gradientUnits="userSpaceOnUse" x1="1437.65" y1="791.27" x2="1437.65" y2="927.85"><stop style="stop-color: #2c3939;stop-opacity: 1" offset="0%"></stop><stop style="stop-color: #010000;stop-opacity: 1" offset="100%"></stop></linearGradient><path d="M1419.13 952.53C1426.45 959.04 1429.76 961.12 1429.06 958.78L1454.66 971.26C1472.08 973.35 1485.49 974.52 1494.9 974.78C1509 975.17 1504.82 961.51 1509.53 956.82C1512.66 953.7 1514.75 944.22 1515.8 928.36C1506.39 916.38 1498.03 907.39 1490.72 901.41C1479.74 892.43 1448.91 897.5 1430.63 900.24C1418.43 902.06 1411.99 909.6 1411.29 922.87C1409.2 936.14 1411.82 946.03 1419.13 952.53Z" id="aKW58UVjn"></path><linearGradient id="gradiente2Og2qt65Y" gradientUnits="userSpaceOnUse" x1="1463.2" y1="896.32" x2="1463.2" y2="974.79"><stop style="stop-color: #1f2323;stop-opacity: 1" offset="0%"></stop><stop style="stop-color: #010000;stop-opacity: 1" offset="100%"></stop></linearGradient></defs><g><g><g><use xlink:href="#g1TnwxujOG" opacity="1" fill="url(#gradientasHbyhXXI)"></use></g><g><use xlink:href="#b4qRuH1MT" opacity="1" fill="url(#gradientdhLf62EHB)"></use><g><use xlink:href="#b4qRuH1MT" opacity="1" fill-opacity="0" stroke="#000000" stroke-width="0" stroke-opacity="1"></use></g></g><g><use xlink:href="#a2vhFfDnhe" opacity="1" fill="url(#gradientb2zfEfKo1)"></use><g><use xlink:href="#a2vhFfDnhe" opacity="1" fill-opacity="0" stroke="#000000" stroke-width="0" stroke-opacity="1"></use></g></g><g><use xlink:href="#f5KL0uSV0G" opacity="1" fill="url(#gradientc8cJW45tCS)"></use><g><use xlink:href="#f5KL0uSV0G" opacity="1" fill-opacity="0" stroke="#000000" stroke-width="0" stroke-opacity="1"></use></g></g><g><use xlink:href="#cIKWJceKy" opacity="1" fill="url(#gradientaWDkDYtYj)"></use><g><use xlink:href="#cIKWJceKy" opacity="1" fill-opacity="0" stroke="#000000" stroke-width="0" stroke-opacity="1"></use></g></g><g><use xlink:href="#a1BmHgxOaM" opacity="1" fill="url(#gradienta4pUZqtWLs)"></use><g><use xlink:href="#a1BmHgxOaM" opacity="1" fill-opacity="0" stroke="#000000" stroke-width="0" stroke-opacity="1"></use></g></g><g><use xlink:href="#a1hZFyZisL" opacity="1" fill="url(#gradientoz79zR7N0)"></use><g><use xlink:href="#a1hZFyZisL" opacity="1" fill-opacity="0" stroke="#000000" stroke-width="0" stroke-opacity="1"></use></g></g><g><g><use xlink:href="#c47C5ySRtP" opacity="1" fill-opacity="0" stroke="#000000" stroke-width="0" stroke-opacity="1"></use></g></g><g><use xlink:href="#b6T5Q3Ro8O" opacity="1" fill="url(#gradientbNvfcUHCz)"></use><g><use xlink:href="#b6T5Q3Ro8O" opacity="1" fill-opacity="0" stroke="#000000" stroke-width="0" stroke-opacity="1"></use></g></g><g><use xlink:href="#d6t3UCUA6" opacity="1" fill="url(#gradientg3twKshdN)"></use><g><use xlink:href="#d6t3UCUA6" opacity="1" fill-opacity="0" stroke="#000000" stroke-width="0" stroke-opacity="1"></use></g></g><g><use xlink:href="#b6einJsq3" opacity="1" fill="url(#gradientc48uITt7By)"></use><g><use xlink:href="#b6einJsq3" opacity="1" fill-opacity="0" stroke="#000000" stroke-width="0" stroke-opacity="1"></use></g></g><g><use xlink:href="#hbiUpczj6" opacity="1" fill="url(#gradientamvAQcISJ)"></use><g><use xlink:href="#hbiUpczj6" opacity="1" fill-opacity="0" stroke="#000000" stroke-width="0" stroke-opacity="1"></use></g></g><g><use xlink:href="#a58R2nVn7g" opacity="1" fill="url(#gradientd7aepIt5S)"></use><g><use xlink:href="#a58R2nVn7g" opacity="1" fill-opacity="0" stroke="#000000" stroke-width="0" stroke-opacity="1"></use></g></g><g><use xlink:href="#doMx8fmaG" opacity="1" fill="url(#gradientd7oWVhD6OH)"></use><g><use xlink:href="#doMx8fmaG" opacity="1" fill-opacity="0" stroke="#000000" stroke-width="0" stroke-opacity="1"></use></g></g><g><use xlink:href="#a2fXf5p9E" opacity="1" fill="url(#gradientczKnJDk70)"></use><g><use xlink:href="#a2fXf5p9E" opacity="1" fill-opacity="0" stroke="#000000" stroke-width="0" stroke-opacity="1"></use></g></g><g><g><use xlink:href="#btb5NYDtl" opacity="1" fill-opacity="0" stroke="#000000" stroke-width="0" stroke-opacity="1"></use></g></g><g><use xlink:href="#dK2oPmum" opacity="1" fill="url(#gradientekF5sumbE)"></use><g><use xlink:href="#dK2oPmum" opacity="1" fill-opacity="0" stroke="#000000" stroke-width="0" stroke-opacity="1"></use></g></g><g><use xlink:href="#fkbIJtHap" opacity="1" fill="url(#gradienta4peUkgNNN)"></use><g><use xlink:href="#fkbIJtHap" opacity="1" fill-opacity="0" stroke="#000000" stroke-width="0" stroke-opacity="1"></use></g></g><g><use xlink:href="#aKW58UVjn" opacity="1" fill="url(#gradiente2Og2qt65Y)"></use><g><use xlink:href="#aKW58UVjn" opacity="1" fill-opacity="0" stroke="#000000" stroke-width="0" stroke-opacity="1"></use></g></g></g></g></svg>