<?xml version="1.0" encoding="UTF-8" standalone="no"?>
<!DOCTYPE svg PUBLIC "-//W3C//DTD SVG 1.1//EN" "http://www.w3.org/Graphics/SVG/1.1/DTD/svg11.dtd">
<svg version="1.1" xmlns="http://www.w3.org/2000/svg" xmlns:xlink="http://www.w3.org/1999/xlink" preserveAspectRatio="xMidYMid meet" viewBox="0 0 1024 768" width="1024" height="768"><defs><path d="M0 0L1020.91 0L1020.91 233.62L511.01 233.62L0 233.62L0 0Z" id="b3VMgNn2Ii"></path><linearGradient id="gradientae6VMYust" gradientUnits="userSpaceOnUse" x1="510.46" y1="0" x2="512" y2="148.51"><stop style="stop-color: #485b86;stop-opacity: 1" offset="0%"></stop><stop style="stop-color: #010000;stop-opacity: 1" offset="100%"></stop></linearGradient><path d="M-52.36 -45.07L-56.32 278.69C308.04 215.74 488.24 180.46 484.28 172.85C478.34 161.43 439.72 118.89 428.83 111.62C417.94 104.36 362.5 88.79 345.66 80.49C328.83 72.19 316.95 34.83 292.2 4.74C275.7 -15.32 255.23 -30.54 230.81 -40.92L139.72 -9.79L-52.36 -45.07Z" id="a26fWe5Kjc"></path><linearGradient id="gradientb8NK3752Q" gradientUnits="userSpaceOnUse" x1="214.01" y1="-45.07" x2="214.01" y2="278.69"><stop style="stop-color: #10723a;stop-opacity: 1" offset="0%"></stop><stop style="stop-color: #010000;stop-opacity: 1" offset="100%"></stop></linearGradient><path d="M917.61 -52.51L922.06 271.25C513.08 208.29 310.82 173.01 315.26 165.4C321.93 153.99 365.27 111.44 377.5 104.18C389.72 96.91 451.96 81.35 470.85 73.05C489.75 64.75 503.08 27.39 530.87 -2.71C549.39 -22.77 572.36 -37.99 599.77 -48.36L702.01 -17.23L917.61 -52.51Z" id="d5CkXexRg"></path><linearGradient id="gradientb1f6PmqUQ" gradientUnits="userSpaceOnUse" x1="618.63" y1="-52.51" x2="618.63" y2="271.25"><stop style="stop-color: #286e30;stop-opacity: 1" offset="0%"></stop><stop style="stop-color: #010000;stop-opacity: 1" offset="100%"></stop></linearGradient><path d="M1068.44 357.27L468.44 351.33C471.08 297.2 476.76 259.58 485.49 238.46C498.58 206.77 516.95 184 557.61 140.44C598.27 96.87 658.53 109.74 695.17 95.88C731.8 82.02 840.71 41.43 862.5 3.8C877.02 -21.28 942.36 -57.25 1058.53 -104.12L1068.44 357.27Z" id="a5YVPEH5z"></path><linearGradient id="gradienta2HrCe3MSo" gradientUnits="userSpaceOnUse" x1="768.44" y1="-104.12" x2="768.44" y2="357.27"><stop style="stop-color: #348f44;stop-opacity: 1" offset="0%"></stop><stop style="stop-color: #010000;stop-opacity: 1" offset="100%"></stop></linearGradient><path d="M508.55 263.21L572.91 244.4L633.31 263.21L664.99 334.5C680.83 366.84 689.74 389.61 691.72 402.81C694.69 422.61 688.75 415.68 669.94 431.52C651.13 447.37 648.16 450.34 612.63 468.16C577.09 485.98 586.77 474.1 554.1 481.03C521.43 487.96 507.56 483.01 488.75 493.9C469.94 504.79 477.86 505.78 483.8 536.48C489.74 567.17 487.76 555.29 508.55 569.15C529.35 583.01 547.17 584.99 586.77 587.96C626.38 590.93 666.97 592.91 699.64 598.85C732.32 604.79 784.79 624.59 805.58 643.41C826.38 662.22 826.38 694.89 817.47 721.62C811.52 739.45 790.4 766.18 754.1 801.82L15.48 791.92C103.93 770.8 177.53 754.3 236.28 742.42C324.4 724.59 421.43 694.89 448.16 690.93C474.89 686.97 517.47 652.32 525.39 643.41C533.31 634.5 521.43 611.72 515.48 598.85C509.54 585.98 486.77 581.03 472.91 579.05C459.05 577.07 443.21 558.26 440.24 536.48C437.27 514.69 469.94 490.93 491.49 478.06C513.04 465.19 546.18 468.16 568.95 460.24C591.72 452.32 619.45 428.55 625.39 411.72C629.35 400.5 623.74 352.98 608.55 269.15L508.55 263.21Z" id="f2ouRChnaB"></path><linearGradient id="gradientb2B02nSq71" gradientUnits="userSpaceOnUse" x1="419.3" y1="244.4" x2="423.26" y2="847.37"><stop style="stop-color: #355995;stop-opacity: 1" offset="0%"></stop><stop style="stop-color: #020841;stop-opacity: 1" offset="100%"></stop></linearGradient><path d="M-121.14 390.93L634.31 384.99C630.98 330.86 623.83 293.24 612.84 272.12C596.35 240.44 573.23 217.66 522.03 174.1C470.84 130.53 394.96 143.41 348.84 129.54C302.71 115.68 165.58 75.09 138.16 37.47C119.87 12.38 37.6 -23.59 -108.67 -70.46L-121.14 390.93Z" id="b1576a93o9"></path><linearGradient id="gradientb1iqlKrbiq" gradientUnits="userSpaceOnUse" x1="256.59" y1="-70.46" x2="256.59" y2="390.93"><stop style="stop-color: #266b30;stop-opacity: 1" offset="0%"></stop><stop style="stop-color: #010000;stop-opacity: 1" offset="100%"></stop></linearGradient><path d="M1056.79 156.47C1057.34 211.54 1058.45 321.7 1060.1 486.93L589.24 494.21L607.78 469.05C638.69 447.41 655.47 433.29 658.12 426.66C662.09 416.73 674.01 362.43 676 337.07C677.98 311.72 703.81 292.23 726.33 265.07C748.84 237.92 797.19 212.76 834.94 198.85C860.1 189.58 924.34 174.57 1027.65 153.82C1046.53 100.51 1056.24 101.39 1056.79 156.47Z" id="c3fnoQfkNh"></path><linearGradient id="gradientb5nEqNAyB" gradientUnits="userSpaceOnUse" x1="824.67" y1="114.48" x2="824.67" y2="494.21"><stop style="stop-color: #3b7439;stop-opacity: 1" offset="0%"></stop><stop style="stop-color: #010000;stop-opacity: 1" offset="100%"></stop></linearGradient><path d="M618.63 365.24L626.39 410.75" id="a1BOJ73L8Q"></path><path d="M1160.82 536.55C781.27 530.56 583.12 527.56 566.36 527.56C541.23 527.56 527.4 536.55 504.41 544.26C489.09 549.39 476.22 540.4 465.82 517.29L465.82 487.75L484.67 481.47C483.83 468.54 498.91 464.21 529.91 468.49C576.41 474.91 550.02 460.78 650.57 468.49C751.11 476.19 683.24 463.35 732.26 454.36C781.27 445.36 752.36 417.12 806.41 406.84C860.45 396.57 851.65 400.42 890.61 375.36C929.57 350.3 918.26 297.69 950.94 274.57C972.72 259.16 1020.48 265.15 1094.21 292.55L1160.82 536.55Z" id="a1ZZIMTe11"></path><linearGradient id="gradientd5OBL9fJw" gradientUnits="userSpaceOnUse" x1="813.32" y1="266.25" x2="813.32" y2="545.66"><stop style="stop-color: #367b4f;stop-opacity: 1" offset="0%"></stop><stop style="stop-color: #010000;stop-opacity: 1" offset="100%"></stop></linearGradient><path d="M-127.5 434.95C228.83 428.95 414.87 425.96 430.6 425.96C454.2 425.96 467.18 434.95 488.76 442.65C503.14 447.79 515.22 438.8 524.99 415.68L524.99 386.15L507.29 379.87C508.08 366.93 493.92 362.6 464.82 366.88C421.16 373.3 445.94 359.18 351.54 366.88C257.15 374.59 320.87 361.75 274.85 352.75C228.83 343.76 255.97 315.52 205.23 305.24C154.5 294.97 162.76 298.82 126.18 273.76C89.6 248.7 100.22 196.08 69.55 172.97C49.09 157.56 4.26 163.55 -64.96 190.95L-127.5 434.95Z" id="aQroGQvly"></path><linearGradient id="gradiente1oKBiqRyh" gradientUnits="userSpaceOnUse" x1="198.75" y1="164.64" x2="198.75" y2="444.05"><stop style="stop-color: #367b4f;stop-opacity: 1" offset="0%"></stop><stop style="stop-color: #010000;stop-opacity: 1" offset="100%"></stop></linearGradient><path d="M619.66 431.27C610.41 441.95 606.23 445.37 607.11 441.52L574.75 462.04C552.74 465.45 535.79 467.38 523.91 467.81C506.08 468.45 511.36 446.01 505.42 438.32C501.45 433.19 498.81 417.61 497.49 391.57C509.38 371.88 519.94 357.12 529.19 347.29C543.06 332.55 582.02 340.88 605.13 345.37C620.54 348.36 628.68 360.75 629.57 382.55C632.21 404.34 628.9 420.58 619.66 431.27Z" id="c3GmXRqIYU"></path><linearGradient id="gradienta4C3BPVbm" gradientUnits="userSpaceOnUse" x1="563.97" y1="338.93" x2="563.97" y2="467.82"><stop style="stop-color: #565757;stop-opacity: 1" offset="0%"></stop><stop style="stop-color: #010000;stop-opacity: 1" offset="100%"></stop></linearGradient><path d="M-29.77 542.05L-12.39 860.04L124.3 786.75C238.69 753.86 313.2 735.79 347.84 732.57C399.81 727.73 416.47 707.41 458.63 696.77C500.79 686.13 488.04 668.71 500.29 656.14C508.45 647.75 510.25 631.62 505.69 607.76L484.12 581.64C472.35 573.9 462.55 563.7 454.71 551.05C442.94 532.07 457.65 521.65 462.55 504.23C465.82 492.62 478.4 486.5 500.29 485.85L542.94 463.6C535.1 451.34 524.97 441.99 512.55 435.54C493.92 425.86 470.39 421.99 436.08 422.96C401.77 423.93 357.65 415.22 328.24 422.96C298.83 430.7 236.08 413.29 191.96 404.58C147.84 395.87 134.12 408.45 103.73 404.58C83.47 402 44.76 393.14 -12.39 378.01L-29.77 542.05Z" id="a1VVl59BMC"></path><linearGradient id="gradientbyt3kgJh0" gradientUnits="userSpaceOnUse" x1="256.59" y1="378.01" x2="256.59" y2="860.04"><stop style="stop-color: #0f2f21;stop-opacity: 1" offset="0%"></stop><stop style="stop-color: #010000;stop-opacity: 1" offset="100%"></stop></linearGradient><path d="M444.27 651.42C451.41 659.5 454.63 662.08 453.95 659.18L478.92 674.69C495.9 677.28 508.98 678.73 518.15 679.05C531.91 679.54 527.83 662.57 532.42 656.75C535.47 652.87 537.51 641.09 538.53 621.4C529.36 606.51 521.21 595.34 514.08 587.91C503.38 576.76 473.32 583.06 455.48 586.46C443.59 588.72 437.31 598.09 436.63 614.57C434.59 631.06 437.14 643.34 444.27 651.42Z" id="a1hwQSKTut"></path><linearGradient id="gradienta455Clm1P" gradientUnits="userSpaceOnUse" x1="487.24" y1="581.59" x2="487.24" y2="679.06"><stop style="stop-color: #565757;stop-opacity: 1" offset="0%"></stop><stop style="stop-color: #010000;stop-opacity: 1" offset="100%"></stop></linearGradient><path d="M358.84 719.18C362.94 723.83 364.79 725.31 364.4 723.64L378.74 732.55C388.5 734.04 396.01 734.87 401.28 735.06C409.19 735.34 406.84 725.59 409.48 722.25C411.24 720.02 412.41 713.25 412.99 701.94C407.72 693.38 403.04 686.97 398.94 682.7C392.79 676.29 375.52 679.91 365.28 681.86C358.45 683.16 354.84 688.54 354.45 698.02C353.28 707.49 354.74 714.54 358.84 719.18Z" id="eMEi7F5u9"></path><linearGradient id="gradientbvIaEAnAz" gradientUnits="userSpaceOnUse" x1="383.52" y1="679.06" x2="383.52" y2="735.07"><stop style="stop-color: #565757;stop-opacity: 1" offset="0%"></stop><stop style="stop-color: #010000;stop-opacity: 1" offset="100%"></stop></linearGradient><path d="M366.79 600.93C370.12 604.7 371.62 605.91 371.31 604.55L382.96 611.8C390.89 613 397 613.68 401.28 613.83C407.7 614.06 405.8 606.14 407.94 603.42C409.37 601.61 410.32 596.11 410.8 586.91C406.51 579.96 402.71 574.75 399.38 571.28C394.38 566.07 380.35 569.01 372.02 570.6C366.47 571.66 363.53 576.03 363.22 583.73C362.27 591.42 363.45 597.16 366.79 600.93Z" id="a18rjg9h3F"></path><linearGradient id="gradientc2CnLTSka" gradientUnits="userSpaceOnUse" x1="386.85" y1="568.33" x2="386.85" y2="613.84"><stop style="stop-color: #565757;stop-opacity: 1" offset="0%"></stop><stop style="stop-color: #010000;stop-opacity: 1" offset="100%"></stop></linearGradient><path d="" id="c3crRIksNl"></path><path d="M1251.68 654.15L1155.01 845.26C843.9 841.56 698.35 835.26 718.35 826.37C738.35 817.48 770.94 777.71 816.13 707.06C802.05 669.57 788.35 645.26 775.01 634.15C755.01 617.48 711.68 604.15 671.68 598.59C631.68 593.04 591.68 589.71 569.46 591.08C547.24 592.46 512.79 581.93 495.01 573.04C483.16 567.11 475.76 555.26 472.79 537.48C489.83 536 500.94 531.21 506.13 523.11C513.9 510.96 549.46 505.26 569.46 499.71C589.46 494.15 650.57 506.37 691.68 508.59C732.79 510.82 781.68 494.15 808.35 491.93C835.01 489.71 892.79 484.15 933.9 467.82C961.31 456.93 996.87 449.01 1040.57 444.05L1251.68 654.15Z" id="eDtLxgJrD"></path><linearGradient id="gradienta81xa5nu7" gradientUnits="userSpaceOnUse" x1="862.24" y1="444.05" x2="862.24" y2="805.26"><stop style="stop-color: #123c2a;stop-opacity: 1" offset="0%"></stop><stop style="stop-color: #010000;stop-opacity: 1" offset="100%"></stop></linearGradient><path d="M832.44 633.29C824.78 641.37 821.31 643.96 822.04 641.05L795.21 656.56C776.96 659.15 762.91 660.6 753.05 660.92C738.27 661.41 742.65 644.44 737.72 638.62C734.43 634.75 732.24 622.96 731.15 603.27C741 588.38 749.76 577.22 757.43 569.78C768.93 558.63 801.23 564.93 820.4 568.33C833.18 570.59 839.93 579.96 840.66 596.45C842.85 612.93 840.11 625.21 832.44 633.29Z" id="cmOAFO0jW"></path><linearGradient id="gradientd2XaupkCcD" gradientUnits="userSpaceOnUse" x1="786.27" y1="563.46" x2="786.27" y2="660.94"><stop style="stop-color: #565757;stop-opacity: 1" offset="0%"></stop><stop style="stop-color: #010000;stop-opacity: 1" offset="100%"></stop></linearGradient><path d="M775.89 678.55C779.99 683.19 781.84 684.68 781.45 683.01L795.8 691.92C805.55 693.41 813.07 694.24 818.34 694.43C826.24 694.71 823.9 684.96 826.53 681.62C828.29 679.39 829.46 672.62 830.04 661.3C824.78 652.75 820.09 646.34 815.99 642.06C809.85 635.66 792.58 639.28 782.33 641.23C775.5 642.53 771.89 647.91 771.5 657.38C770.33 666.85 771.79 673.91 775.89 678.55Z" id="cSFFAHvFv"></path><linearGradient id="gradientgfqBeZ2Ud" gradientUnits="userSpaceOnUse" x1="800.58" y1="638.43" x2="800.58" y2="694.43"><stop style="stop-color: #565757;stop-opacity: 1" offset="0%"></stop><stop style="stop-color: #010000;stop-opacity: 1" offset="100%"></stop></linearGradient></defs><g><g><g><use xlink:href="#b3VMgNn2Ii" opacity="1" fill="url(#gradientae6VMYust)"></use></g><g><use xlink:href="#a26fWe5Kjc" opacity="1" fill="url(#gradientb8NK3752Q)"></use><g><use xlink:href="#a26fWe5Kjc" opacity="1" fill-opacity="0" stroke="#000000" stroke-width="0" stroke-opacity="1"></use></g></g><g><use xlink:href="#d5CkXexRg" opacity="1" fill="url(#gradientb1f6PmqUQ)"></use><g><use xlink:href="#d5CkXexRg" opacity="1" fill-opacity="0" stroke="#000000" stroke-width="0" stroke-opacity="1"></use></g></g><g><use xlink:href="#a5YVPEH5z" opacity="1" fill="url(#gradienta2HrCe3MSo)"></use><g><use xlink:href="#a5YVPEH5z" opacity="1" fill-opacity="0" stroke="#000000" stroke-width="0" stroke-opacity="1"></use></g></g><g><use xlink:href="#f2ouRChnaB" opacity="1" fill="url(#gradientb2B02nSq71)"></use><g><use xlink:href="#f2ouRChnaB" opacity="1" fill-opacity="0" stroke="#000000" stroke-width="0" stroke-opacity="1"></use></g></g><g><use xlink:href="#b1576a93o9" opacity="1" fill="url(#gradientb1iqlKrbiq)"></use><g><use xlink:href="#b1576a93o9" opacity="1" fill-opacity="0" stroke="#000000" stroke-width="0" stroke-opacity="1"></use></g></g><g><use xlink:href="#c3fnoQfkNh" opacity="1" fill="url(#gradientb5nEqNAyB)"></use><g><use xlink:href="#c3fnoQfkNh" opacity="1" fill-opacity="0" stroke="#000000" stroke-width="0" stroke-opacity="1"></use></g></g><g><g><use xlink:href="#a1BOJ73L8Q" opacity="1" fill-opacity="0" stroke="#000000" stroke-width="0" stroke-opacity="1"></use></g></g><g><use xlink:href="#a1ZZIMTe11" opacity="1" fill="url(#gradientd5OBL9fJw)"></use><g><use xlink:href="#a1ZZIMTe11" opacity="1" fill-opacity="0" stroke="#000000" stroke-width="0" stroke-opacity="1"></use></g></g><g><use xlink:href="#aQroGQvly" opacity="1" fill="url(#gradiente1oKBiqRyh)"></use><g><use xlink:href="#aQroGQvly" opacity="1" fill-opacity="0" stroke="#000000" stroke-width="0" stroke-opacity="1"></use></g></g><g><use xlink:href="#c3GmXRqIYU" opacity="1" fill="url(#gradienta4C3BPVbm)"></use><g><use xlink:href="#c3GmXRqIYU" opacity="1" fill-opacity="0" stroke="#000000" stroke-width="0" stroke-opacity="1"></use></g></g><g><use xlink:href="#a1VVl59BMC" opacity="1" fill="url(#gradientbyt3kgJh0)"></use><g><use xlink:href="#a1VVl59BMC" opacity="1" fill-opacity="0" stroke="#000000" stroke-width="0" stroke-opacity="1"></use></g></g><g><use xlink:href="#a1hwQSKTut" opacity="1" fill="url(#gradienta455Clm1P)"></use><g><use xlink:href="#a1hwQSKTut" opacity="1" fill-opacity="0" stroke="#000000" stroke-width="0" stroke-opacity="1"></use></g></g><g><use xlink:href="#eMEi7F5u9" opacity="1" fill="url(#gradientbvIaEAnAz)"></use><g><use xlink:href="#eMEi7F5u9" opacity="1" fill-opacity="0" stroke="#000000" stroke-width="0" stroke-opacity="1"></use></g></g><g><use xlink:href="#a18rjg9h3F" opacity="1" fill="url(#gradientc2CnLTSka)"></use><g><use xlink:href="#a18rjg9h3F" opacity="1" fill-opacity="0" stroke="#000000" stroke-width="0" stroke-opacity="1"></use></g></g><g><g><use xlink:href="#c3crRIksNl" opacity="1" fill-opacity="0" stroke="#000000" stroke-width="0" stroke-opacity="1"></use></g></g><g><use xlink:href="#eDtLxgJrD" opacity="1" fill="url(#gradienta81xa5nu7)"></use><g><use xlink:href="#eDtLxgJrD" opacity="1" fill-opacity="0" stroke="#000000" stroke-width="0" stroke-opacity="1"></use></g></g><g><use xlink:href="#cmOAFO0jW" opacity="1" fill="url(#gradientd2XaupkCcD)"></use><g><use xlink:href="#cmOAFO0jW" opacity="1" fill-opacity="0" stroke="#000000" stroke-width="0" stroke-opacity="1"></use></g></g><g><use xlink:href="#cSFFAHvFv" opacity="1" fill="url(#gradientgfqBeZ2Ud)"></use><g><use xlink:href="#cSFFAHvFv" opacity="1" fill-opacity="0" stroke="#000000" stroke-width="0" stroke-opacity="1"></use></g></g></g></g></svg>