<?xml version="1.0" encoding="UTF-8" standalone="no"?>
<!DOCTYPE svg PUBLIC "-//W3C//DTD SVG 1.1//EN" "http://www.w3.org/Graphics/SVG/1.1/DTD/svg11.dtd">
<svg version="1.1" xmlns="http://www.w3.org/2000/svg" xmlns:xlink="http://www.w3.org/1999/xlink" preserveAspectRatio="xMidYMid meet" viewBox="0 0 440 480" width="440" height="480"><defs><path d="M88.26 461.94C98.53 468.43 157.18 463.02 264.21 445.72L413.4 175.72L408.53 164.37C376.64 175.18 356.1 184.37 346.91 191.94C337.72 199.51 307.18 239.78 255.29 312.75C327.18 161.67 362.05 86 359.88 85.72C356.64 85.32 370.42 76.81 346.91 84.1C323.4 91.4 282.86 132.75 264.21 157.89C251.78 174.64 228.26 217.89 193.67 287.62L281.24 23.29C245.56 43.83 222.05 59.51 210.69 70.32C199.34 81.13 178.26 141.67 147.45 251.94L189.61 10.32C169.07 15.18 147.45 27.35 124.75 46.81C102.05 66.27 88.8 154.37 85.02 311.13L71.24 115.72C51.78 150.86 37.72 188.16 29.07 227.62C20.42 267.08 34.48 339.78 71.24 445.72C72.32 450.05 77.99 455.45 88.26 461.94Z" id="cc37sJnC9"></path><radialGradient id="gradienta7s93mrYFK" gradientUnits="userSpaceOnUse" cx="251.53" cy="84.28" dx="128.74" dy="487.48" r="421.48"><stop style="stop-color: #423847;stop-opacity: 1" offset="0%"></stop><stop style="stop-color: #091545;stop-opacity: 1" offset="100%"></stop></radialGradient></defs><g><g><g><use xlink:href="#cc37sJnC9" opacity="1" fill="url(#gradienta7s93mrYFK)"></use><g><use xlink:href="#cc37sJnC9" opacity="1" fill-opacity="0" stroke="#000000" stroke-width="0" stroke-opacity="1"></use></g></g></g></g></svg>